# xmcd CD database file
#
# Track frame offsets:
#	150
#	13320
#	25205
#	37702
#	50507
#	63160
#	75402
#	86372
#	99665
#	111945
#	124540
#	137252
#	149025
#	160227
#	171427
#	183872
#	198187
#	210640
#	220747
#	232752
#	243927
#	255127
#	268847
#	279655
#
# Disc length: 3895 seconds
#
# Revision: 1
# Processed by: cddbd v1.5PL3 Copyright (c) Steve Scherf et al.
# Submitted via: CDex 1.50Beta7
#
DISCID=3f0f3518
DTITLE=Hot Lips Page - Shoutin' The Blues
DYEAR=1900
DGENRE=Blues
TTITLE0=Big Maybelle Smith-Too Tight Mama
TTITLE1=Big Maybelle Smith-Sad And Disappointed Jill
TTITLE2=Big Maybelle Smith-Don't Try To Fool Me
TTITLE3=Big Maybelle Smith-Dirty Deal Blues
TTITLE4=Wynonie Harris-Good Morning Mister Blues
TTITLE5=Wynonie Harris-Blow Your Brains Out
TTITLE6=Wynonie Harris-Blowin' To California
TTITLE7=Wynonie Harris-Crazy Love
TTITLE8=Wynonie Harris-From Bad To Good Blues
TTITLE9=Wynonie Harris-Good Rockin' Tonight
TTITLE10=Wynonie Harris-Lollipop Mama
TTITLE11=Wynonie Harris-I Believe I'll Fall In Love
TTITLE12=Marion Abernathy-My Man Boogie
TTITLE13=Marion Abernathy-Brotherly Love
TTITLE14=Marion Abernathy-Nobody Wants You
TTITLE15=Marion Abernathy-Hey Little Boy
TTITLE16=Marion Abernathy-Little Boy Blues
TTITLE17=Marion Abernathy-What's The Matter With Me
TTITLE18=Marion Abernathy-Wee Baby
TTITLE19=Marion Abernathy-It's A Low Down Dirty Shame
TTITLE20=Hot Lips Page-Your Sirt Tail's Out
TTITLE21=Hot Lips Page-Fat Stuff
TTITLE22=Hot Lips Page-Ashes On My Pillow
TTITLE23=Hot Lips Page-Boodie, Boodie
EXTD=
EXTT0=
EXTT1=
EXTT2=
EXTT3=
EXTT4=
EXTT5=
EXTT6=
EXTT7=
EXTT8=
EXTT9=
EXTT10=
EXTT11=
EXTT12=
EXTT13=
EXTT14=
EXTT15=
EXTT16=
EXTT17=
EXTT18=
EXTT19=
EXTT20=
EXTT21=
EXTT22=
EXTT23=
PLAYORDER=
